<svg id="visual" viewBox="0 0 960 540" width="960" height="540" xmlns="http://www.w3.org/2000/svg" xmlns:xlink="http://www.w3.org/1999/xlink" version="1.1"><rect x="0" y="0" width="960" height="540" fill="#001220"></rect><defs><linearGradient id="grad1_0" x1="43.8%" y1="100%" x2="100%" y2="0%"><stop offset="14.444444444444446%" stop-color="#001220" stop-opacity="1"></stop><stop offset="85.55555555555554%" stop-color="#001220" stop-opacity="1"></stop></linearGradient></defs><defs><linearGradient id="grad2_0" x1="0%" y1="100%" x2="56.3%" y2="0%"><stop offset="14.444444444444446%" stop-color="#001220" stop-opacity="1"></stop><stop offset="85.55555555555554%" stop-color="#001220" stop-opacity="1"></stop></linearGradient></defs><g transform="translate(960, 540)"><path d="M-324 0C-302 -37.2 -279.9 -74.4 -261.5 -108.3C-243 -142.2 -228 -172.9 -207.2 -207.2C-186.3 -241.4 -159.5 -279.3 -124 -299.3C-88.5 -319.4 -44.2 -321.7 0 -324L0 0Z" fill="#231b55"></path></g><g transform="translate(0, 0)"><path d="M324 0C308.9 36.4 293.7 72.9 281.8 116.7C269.9 160.5 261.2 211.7 229.1 229.1C197 246.5 141.6 230 99.5 240.2C57.4 250.4 28.7 287.2 0 324L0 0Z" fill="#231b55"></path></g></svg>