<svg id="visual" viewBox="0 0 960 540" width="960" height="540" xmlns="http://www.w3.org/2000/svg" xmlns:xlink="http://www.w3.org/1999/xlink" version="1.1"><rect x="0" y="0" width="960" height="540" fill="#001122"></rect><g transform="translate(459.8082903300287 253.31456045237397)"><path d="M109.9 -114.2C143.2 -103.1 171.3 -69.1 176.7 -32.1C182 4.9 164.6 44.9 139.5 73.2C114.5 101.5 81.7 117.9 46.9 131.8C12.2 145.7 -24.5 156.9 -59.4 149.9C-94.2 143 -127.2 117.7 -135.2 86.5C-143.2 55.2 -126.3 18 -113.7 -14.3C-101.2 -46.6 -93 -73.8 -74.8 -87.5C-56.6 -101.2 -28.3 -101.2 5 -107.2C38.4 -113.2 76.7 -125.2 109.9 -114.2" fill="#b0b320"></path></g></svg>