<svg id="visual" viewBox="0 0 900 600" width="900" height="600" xmlns="http://www.w3.org/2000/svg" xmlns:xlink="http://www.w3.org/1999/xlink" version="1.1"><rect x="0" y="0" width="900" height="600" fill="#061B44"></rect><path d="M0 375L21.5 377.5C43 380 86 385 128.8 395.8C171.7 406.7 214.3 423.3 257.2 425.5C300 427.7 343 415.3 385.8 410.3C428.7 405.3 471.3 407.7 514.2 398.8C557 390 600 370 642.8 373.5C685.7 377 728.3 404 771.2 413.7C814 423.3 857 415.7 878.5 411.8L900 408L900 601L878.5 601C857 601 814 601 771.2 601C728.3 601 685.7 601 642.8 601C600 601 557 601 514.2 601C471.3 601 428.7 601 385.8 601C343 601 300 601 257.2 601C214.3 601 171.7 601 128.8 601C86 601 43 601 21.5 601L0 601Z" fill="#3a364e"></path><path d="M0 416L21.5 413.2C43 410.3 86 404.7 128.8 402.5C171.7 400.3 214.3 401.7 257.2 412.7C300 423.7 343 444.3 385.8 456C428.7 467.7 471.3 470.3 514.2 471.7C557 473 600 473 642.8 469.7C685.7 466.3 728.3 459.7 771.2 457.5C814 455.3 857 457.7 878.5 458.8L900 460L900 601L878.5 601C857 601 814 601 771.2 601C728.3 601 685.7 601 642.8 601C600 601 557 601 514.2 601C471.3 601 428.7 601 385.8 601C343 601 300 601 257.2 601C214.3 601 171.7 601 128.8 601C86 601 43 601 21.5 601L0 601Z" fill="#2a2c3f"></path><path d="M0 508L21.5 506.2C43 504.3 86 500.7 128.8 497.5C171.7 494.3 214.3 491.7 257.2 488.2C300 484.7 343 480.3 385.8 483C428.7 485.7 471.3 495.3 514.2 501C557 506.7 600 508.3 642.8 506.8C685.7 505.3 728.3 500.7 771.2 495.3C814 490 857 484 878.5 481L900 478L900 601L878.5 601C857 601 814 601 771.2 601C728.3 601 685.7 601 642.8 601C600 601 557 601 514.2 601C471.3 601 428.7 601 385.8 601C343 601 300 601 257.2 601C214.3 601 171.7 601 128.8 601C86 601 43 601 21.5 601L0 601Z" fill="#1d222f"></path><path d="M0 494L21.5 494.7C43 495.3 86 496.7 128.8 501.7C171.7 506.7 214.3 515.3 257.2 519.5C300 523.7 343 523.3 385.8 520.2C428.7 517 471.3 511 514.2 512.3C557 513.7 600 522.3 642.8 527.8C685.7 533.3 728.3 535.7 771.2 529.5C814 523.3 857 508.7 878.5 501.3L900 494L900 601L878.5 601C857 601 814 601 771.2 601C728.3 601 685.7 601 642.8 601C600 601 557 601 514.2 601C471.3 601 428.7 601 385.8 601C343 601 300 601 257.2 601C214.3 601 171.7 601 128.8 601C86 601 43 601 21.5 601L0 601Z" fill="#13181f"></path><path d="M0 570L21.5 566.3C43 562.7 86 555.3 128.8 549.5C171.7 543.7 214.3 539.3 257.2 537C300 534.7 343 534.3 385.8 532.8C428.7 531.3 471.3 528.7 514.2 532.7C557 536.7 600 547.3 642.8 550.8C685.7 554.3 728.3 550.7 771.2 546.5C814 542.3 857 537.7 878.5 535.3L900 533L900 601L878.5 601C857 601 814 601 771.2 601C728.3 601 685.7 601 642.8 601C600 601 557 601 514.2 601C471.3 601 428.7 601 385.8 601C343 601 300 601 257.2 601C214.3 601 171.7 601 128.8 601C86 601 43 601 21.5 601L0 601Z" fill="#070b0f"></path></svg>