<svg id="visual" viewBox="0 0 900 600" width="900" height="600" xmlns="http://www.w3.org/2000/svg" xmlns:xlink="http://www.w3.org/1999/xlink" version="1.1"><path d="M0 97L13.7 91C27.3 85 54.7 73 82 64C109.3 55 136.7 49 163.8 55C191 61 218 79 245.2 88C272.3 97 299.7 97 327 101C354.3 105 381.7 113 409 105C436.3 97 463.7 73 491 64C518.3 55 545.7 61 573 71C600.3 81 627.7 95 654.8 93C682 91 709 73 736.2 64C763.3 55 790.7 55 818 64C845.3 73 872.7 91 886.3 100L900 109L900 0L886.3 0C872.7 0 845.3 0 818 0C790.7 0 763.3 0 736.2 0C709 0 682 0 654.8 0C627.7 0 600.3 0 573 0C545.7 0 518.3 0 491 0C463.7 0 436.3 0 409 0C381.7 0 354.3 0 327 0C299.7 0 272.3 0 245.2 0C218 0 191 0 163.8 0C136.7 0 109.3 0 82 0C54.7 0 27.3 0 13.7 0L0 0Z" fill="#061b44"></path><path d="M0 139L13.7 138C27.3 137 54.7 135 82 127C109.3 119 136.7 105 163.8 113C191 121 218 151 245.2 158C272.3 165 299.7 149 327 147C354.3 145 381.7 157 409 150C436.3 143 463.7 117 491 117C518.3 117 545.7 143 573 156C600.3 169 627.7 169 654.8 161C682 153 709 137 736.2 133C763.3 129 790.7 137 818 151C845.3 165 872.7 185 886.3 195L900 205L900 107L886.3 98C872.7 89 845.3 71 818 62C790.7 53 763.3 53 736.2 62C709 71 682 89 654.8 91C627.7 93 600.3 79 573 69C545.7 59 518.3 53 491 62C463.7 71 436.3 95 409 103C381.7 111 354.3 103 327 99C299.7 95 272.3 95 245.2 86C218 77 191 59 163.8 53C136.7 47 109.3 53 82 62C54.7 71 27.3 83 13.7 89L0 95Z" fill="#00172e"></path><path d="M0 277L13.7 280C27.3 283 54.7 289 82 283C109.3 277 136.7 259 163.8 259C191 259 218 277 245.2 275C272.3 273 299.7 251 327 249C354.3 247 381.7 265 409 260C436.3 255 463.7 227 491 223C518.3 219 545.7 239 573 256C600.3 273 627.7 287 654.8 290C682 293 709 285 736.2 285C763.3 285 790.7 293 818 291C845.3 289 872.7 277 886.3 271L900 265L900 203L886.3 193C872.7 183 845.3 163 818 149C790.7 135 763.3 127 736.2 131C709 135 682 151 654.8 159C627.7 167 600.3 167 573 154C545.7 141 518.3 115 491 115C463.7 115 436.3 141 409 148C381.7 155 354.3 143 327 145C299.7 147 272.3 163 245.2 156C218 149 191 119 163.8 111C136.7 103 109.3 117 82 125C54.7 133 27.3 135 13.7 136L0 137Z" fill="#001220"></path><path d="M0 457L13.7 451C27.3 445 54.7 433 82 435C109.3 437 136.7 453 163.8 449C191 445 218 421 245.2 412C272.3 403 299.7 409 327 408C354.3 407 381.7 399 409 408C436.3 417 463.7 443 491 453C518.3 463 545.7 457 573 450C600.3 443 627.7 435 654.8 424C682 413 709 399 736.2 393C763.3 387 790.7 389 818 407C845.3 425 872.7 459 886.3 476L900 493L900 263L886.3 269C872.7 275 845.3 287 818 289C790.7 291 763.3 283 736.2 283C709 283 682 291 654.8 288C627.7 285 600.3 271 573 254C545.7 237 518.3 217 491 221C463.7 225 436.3 253 409 258C381.7 263 354.3 245 327 247C299.7 249 272.3 271 245.2 273C218 275 191 257 163.8 257C136.7 257 109.3 275 82 281C54.7 287 27.3 281 13.7 278L0 275Z" fill="#00172e"></path><path d="M0 601L13.7 601C27.3 601 54.7 601 82 601C109.3 601 136.7 601 163.8 601C191 601 218 601 245.2 601C272.3 601 299.7 601 327 601C354.3 601 381.7 601 409 601C436.3 601 463.7 601 491 601C518.3 601 545.7 601 573 601C600.3 601 627.7 601 654.8 601C682 601 709 601 736.2 601C763.3 601 790.7 601 818 601C845.3 601 872.7 601 886.3 601L900 601L900 491L886.3 474C872.7 457 845.3 423 818 405C790.7 387 763.3 385 736.2 391C709 397 682 411 654.8 422C627.7 433 600.3 441 573 448C545.7 455 518.3 461 491 451C463.7 441 436.3 415 409 406C381.7 397 354.3 405 327 406C299.7 407 272.3 401 245.2 410C218 419 191 443 163.8 447C136.7 451 109.3 435 82 433C54.7 431 27.3 443 13.7 449L0 455Z" fill="#061b44"></path></svg>