<svg id="visual" viewBox="0 0 900 600" width="900" height="600" xmlns="http://www.w3.org/2000/svg" xmlns:xlink="http://www.w3.org/1999/xlink" version="1.1"><path d="M0 13L900 43L900 0L0 0Z" fill="#001220"></path><path d="M0 145L900 73L900 41L0 11Z" fill="#001425"></path><path d="M0 175L900 91L900 71L0 143Z" fill="#00162b"></path><path d="M0 235L900 109L900 89L0 173Z" fill="#001730"></path><path d="M0 349L900 253L900 107L0 233Z" fill="#001935"></path><path d="M0 367L900 265L900 251L0 347Z" fill="#001a3a"></path><path d="M0 409L900 379L900 263L0 365Z" fill="#011a3f"></path><path d="M0 487L900 451L900 377L0 407Z" fill="#061b44"></path><path d="M0 553L900 451L900 449L0 485Z" fill="#0c1c49"></path><path d="M0 583L900 511L900 449L0 551Z" fill="#141c4d"></path><path d="M0 595L900 559L900 509L0 581Z" fill="#1b1c51"></path><path d="M0 601L900 601L900 557L0 593Z" fill="#231b55"></path></svg>